<svg xmlns="http://www.w3.org/2000/svg" width="25" height="24" fill="none"><g clip-path="url(#a)"><path fill="#D6EF0E" d="M21.227 0H3.773A3.273 3.273 0 0 0 .5 3.273v17.454A3.273 3.273 0 0 0 3.773 24h17.454a3.273 3.273 0 0 0 3.273-3.273V3.273A3.273 3.273 0 0 0 21.227 0Z"/><path fill="#090F1D" d="m16.302 10.58-.241 2.09a.391.391 0 0 1-.385.35h-2.182l-.01 6.198a.28.28 0 0 1-.274.282H11a.273.273 0 0 1-.273-.284V13.02H9.091a.392.392 0 0 1-.387-.396l-.009-2.09a.393.393 0 0 1 .388-.398h1.644V8.118c0-2.343 1.391-3.618 3.431-3.618h1.672a.393.393 0 0 1 .389.398v1.76a.392.392 0 0 1-.389.397h-1.025c-1.11 0-1.325.546-1.325 1.334v1.747h2.437a.393.393 0 0 1 .385.443Z"/></g><defs><clipPath id="a"><path fill="#fff" d="M.5 0h24v24H.5z"/></clipPath></defs></svg>