<svg xmlns="http://www.w3.org/2000/svg" width="25" height="24" fill="none"><g clip-path="url(#a)"><path fill="#fff" d="M21.227 0H3.773A3.273 3.273 0 0 0 .5 3.273v17.454A3.273 3.273 0 0 0 3.773 24h17.454a3.273 3.273 0 0 0 3.273-3.273V3.273A3.273 3.273 0 0 0 21.227 0Z"/><path fill="#090F1D" d="M9.145 6.545a2.045 2.045 0 1 1-4.09 0 2.045 2.045 0 0 1 4.09 0Zm-.463 3.41v9.036a.506.506 0 0 1-.506.509H6.02a.506.506 0 0 1-.507-.507V9.955a.507.507 0 0 1 .507-.508h2.156a.507.507 0 0 1 .506.508Zm11.269 4.704v4.375a.464.464 0 0 1-.466.466h-2.319a.466.466 0 0 1-.466-.466v-4.24c0-.633.186-2.77-1.654-2.77-1.425 0-1.715 1.462-1.773 2.12v4.89a.466.466 0 0 1-.46.466h-2.238a.466.466 0 0 1-.465-.466V9.915a.464.464 0 0 1 .465-.466h2.239a.466.466 0 0 1 .466.466v.788c.53-.793 1.313-1.406 2.986-1.406 3.707 0 3.685 3.461 3.685 5.362Z"/></g><defs><clipPath id="a"><path fill="#fff" d="M.5 0h24v24H.5z"/></clipPath></defs></svg>