<svg xmlns="http://www.w3.org/2000/svg" width="25" height="24" fill="none"><g clip-path="url(#a)"><path fill="#fff" d="M21.227 0H3.773A3.273 3.273 0 0 0 .5 3.273v17.454A3.273 3.273 0 0 0 3.773 24h17.454a3.273 3.273 0 0 0 3.273-3.273V3.273A3.273 3.273 0 0 0 21.227 0Z"/><path fill="#090F1D" d="m19.037 6.205-.248.09-13.47 4.853a.451.451 0 0 0 .04.873l3.486.954.65 1.91.651 1.908a.62.62 0 0 0 .999.223l1.8-1.702 3.538 2.398c.433.295 1.049.077 1.16-.409l2.342-10.351c.115-.513-.425-.934-.948-.747Zm-1.72 2.297-6.085 4.975-.287.234a.31.31 0 0 0-.114.202l-.064.53-.176 1.486a.068.068 0 0 1-.063.073.069.069 0 0 1-.073-.062l-.495-1.486-.512-1.52a.308.308 0 0 1 .147-.364l6.333-3.63 1.192-.682c.173-.1.35.119.198.244Z"/></g><defs><clipPath id="a"><path fill="#fff" d="M.5 0h24v24H.5z"/></clipPath></defs></svg>